<?xml version="1.0" encoding="utf-8"?>
<!-- Generator: Adobe Illustrator 26.2.1, SVG Export Plug-In . SVG Version: 6.00 Build 0)  -->
<svg version="1.1" id="Слой_1" xmlns="http://www.w3.org/2000/svg" xmlns:xlink="http://www.w3.org/1999/xlink" x="0px" y="0px"
	 viewBox="0 0 362.1 362.1" style="enable-background:new 0 0 362.1 362.1;" xml:space="preserve">
<g>
	<path d="M112.6,116.4c0,2.3-1.8,4.1-4.1,4.1c-2.3,0-4.1-1.8-4.1-4.1c0-2.3,1.8-4.1,4.1-4.1C110.7,112.2,112.6,114.1,112.6,116.4"/>
	<path d="M127.1,116.4c0,2.3-1.8,4.1-4.1,4.1c-2.3,0-4.1-1.8-4.1-4.1c0-2.3,1.8-4.1,4.1-4.1C125.3,112.2,127.1,114.1,127.1,116.4"/>
	<path d="M141.3,116.4c0,2.3-1.8,4.1-4.1,4.1c-2.3,0-4.1-1.8-4.1-4.1c0-2.3,1.8-4.1,4.1-4.1C139.5,112.2,141.3,114.1,141.3,116.4"/>
	<path d="M131.5,170.3c-1.6-1.6-4.1-1.6-5.8,0L101.1,195c-1.6,1.6-1.6,4.1,0,5.8l24.7,24.7c0.8,0.8,1.9,1.1,3,1.1
		c1.1,0,2.2-0.3,3-1.1c1.6-1.6,1.6-4.1,0-5.8l-21.9-21.9l21.9-21.9C133.1,174.4,133.1,172,131.5,170.3L131.5,170.3z"/>
	<path d="M191.7,170.3c-1.6-1.6-4.1-1.6-5.8,0c-1.6,1.6-1.6,4.1,0,5.8l21.9,21.9L186,219.9c-1.6,1.6-1.6,4.1,0,5.8
		c0.8,0.8,1.9,1.1,3,1.1c1.1,0,2.2-0.3,3-1.1l24.7-24.7c0.8-0.8,1.1-1.9,1.1-3c0-1.1-0.5-2.2-1.1-3L191.7,170.3z"/>
	<path d="M177,156.3c-2.2-0.8-4.4,0-5.5,2.2l-32.9,77.3c-0.8,2.2,0,4.4,2.2,5.5c0.5,0.3,1.1,0.3,1.6,0.3c1.6,0,3-0.8,3.8-2.5
		l32.9-77.3C180,159.6,178.9,157.2,177,156.3L177,156.3z"/>
	<path d="M313.4,72l-14.2-7.1c-3-1.4-6.3-1.6-9.3-0.8c-3,1.1-5.8,3.3-7.1,6.3l-6,12.1l-6.8,14H85.5c-2.2,0-4.1,1.9-4.1,4.1v12.6
		H67.9c-2.2,0-4.1,1.9-4.1,4.1v13.4H50.4c-2.2,0-4.1,1.6-4.1,4.1v150.9c0,2.2,1.9,4.1,4.1,4.1H258c2.2,0,4.1-1.9,4.1-4.1v-13.4h13.4
		c2.2,0,4.1-1.9,4.1-4.1l0-31.5c0-0.5,0-0.8-0.3-1.1l16.4-16.4c0,0,0-0.3,0.3-0.3c0.3-0.3,0.3-0.3,0.5-0.5c0,0,0-0.3,0.3-0.3
		c0-0.3,0.3-0.5,0.3-0.8v-0.3v-0.8v-83.3V132l21.9-43.6C321.9,82.4,319.4,75,313.4,72L313.4,72z M290.1,73.9
		c1.1-1.9,3.6-2.7,5.5-1.9l14.2,7.1c1.9,1.1,2.7,3.6,1.9,5.5l-4.4,8.5l-21.6-11L290.1,73.9z M301.3,105.4l-21.6-11l2.5-4.9l21.6,11
		L301.3,105.4z M263.8,180.2l-7.1-3.6l34-67.4l7.1,3.6L263.8,180.2z M275.8,101.8l7.1,3.6l-33.7,67.7l-7.1-3.6L275.8,101.8z
		 M240.2,177.7l18.1,9L238,204L240.2,177.7z M265.4,104.6L253.1,129H89.6v-24.4H265.4z M253.9,281.5H54.5V138.8h9.3v129.3
		c0,2.2,1.9,4.1,4.1,4.1h186L253.9,281.5z M271.5,264H72V121.3h9.3V250c0,2.2,1.9,4.1,4.1,4.1h173.7h0.8h0.3h0.5c0,0,0.3,0,0.3-0.3
		c0.3,0,0.3,0,0.5-0.3l0.3-0.3c0.3,0,0.3-0.3,0.5-0.3l9.6-9.6V264L271.5,264z M263.2,240.2V224c0-1.9,1.6-3.6,3.6-3.8h16.4
		L263.2,240.2z M289,212h-21.6h-0.5c-6.6,0-12.1,5.5-12.1,12.1v22.2H89.6v-109H249l-16.2,32.3v0.5c0,0.3,0,0.5-0.3,0.8l-3.3,42.5
		c0,1.6,0.8,3.3,2.2,4.1c0.5,0.3,1.1,0.5,1.9,0.5c1.1,0,1.9-0.3,2.7-1.1l32-27.9c0.3-0.3,0.5-0.8,0.8-1.1l19.7-39.4L289,212z"/>
</g>
</svg>
