<?xml version="1.0" encoding="utf-8"?>
<!-- Generator: Adobe Illustrator 26.2.1, SVG Export Plug-In . SVG Version: 6.00 Build 0)  -->
<svg version="1.1" id="Слой_1" xmlns="http://www.w3.org/2000/svg" xmlns:xlink="http://www.w3.org/1999/xlink" x="0px" y="0px"
	 viewBox="0 0 410 410" style="enable-background:new 0 0 410 410;" xml:space="preserve">
<g>
	<path d="M278.8,78.4c0,2.8-2.3,5.1-5.1,5.1c-2.8,0-5.1-2.3-5.1-5.1s2.3-5.1,5.1-5.1C276.6,73.3,278.8,75.6,278.8,78.4"/>
	<path d="M299.1,78.4c0,2.8-2.3,5.1-5.1,5.1c-2.8,0-5.1-2.3-5.1-5.1s2.3-5.1,5.1-5.1S299.1,75.6,299.1,78.4"/>
	<path d="M319.4,78.4c0,2.8-2.3,5.1-5.1,5.1s-5.1-2.3-5.1-5.1s2.3-5.1,5.1-5.1S319.4,75.6,319.4,78.4"/>
	<path d="M303.2,154.4l-74.5-20.3H61c-5.6,0-10.1,4.6-10.1,10.1v20.3c0,5.6,4.6,10.1,10.1,10.1h167.7L303.2,154.4z M223.1,164.5
		H91.4v-20.3h131.7V164.5z M233.3,163v-17.2l31.4,8.6L233.3,163z M61,144.3h20.3v20.3H61V144.3z"/>
	<path d="M81.3,103.7h243.2v125.1c3.5,2,6.6,4.1,10.1,6.6V53.1H71.1V124h10.1V103.7z M324.4,63.2v30.4H81.3V63.2H324.4z"/>
	<path d="M324.4,346.9H81.3V184.8H71.1V357h263.4v-60.8c-3.5,2.5-6.6,4.6-10.1,6.6V346.9z"/>
	<path d="M324.4,265.3v1.5c0.5,0,0.5-0.5,1-0.5C324.9,265.8,324.9,265.3,324.4,265.3z"/>
	<path d="M353.3,261.8c-73-62.3-146.4-62.3-219.4,0l-4.6,4.1l4.1,4.1c36.5,30.9,73.5,46.6,109.9,46.6s73.5-15.7,109.9-46.6l4.6-4.1
		L353.3,261.8z M145.1,265.9c65.9-54.2,130.7-54.2,197.1,0C275.8,320.1,211.5,320.1,145.1,265.9z"/>
	<path d="M202.9,265.9c0,22.3,18.2,40.5,40.5,40.5s40.5-18.2,40.5-40.5c0-22.3-18.2-40.5-40.5-40.5S202.9,243.6,202.9,265.9z
		 M273.8,265.9c0,16.7-13.7,30.4-30.4,30.4S213,282.6,213,265.9c0-16.7,13.7-30.4,30.4-30.4S273.8,249.1,273.8,265.9z"/>
</g>
</svg>
